<?xml version="1.0" encoding="utf-8"?><!-- Generator: Adobe Illustrator 25.4.1, SVG Export Plug-In . SVG Version: 6.00 Build 0)  --><svg version="1.1" id="Layer_1" xmlns="http://www.w3.org/2000/svg" xmlns:xlink="http://www.w3.org/1999/xlink" x="0px" y="0px"	 viewBox="0 0 800 500" style="enable-background:new 0 0 800 500;" xml:space="preserve"><style type="text/css">	.st0{fill-rule:evenodd;clip-rule:evenodd;fill:#221F1F;}	.st1{fill:#221F1F;}	.st2{fill-rule:evenodd;clip-rule:evenodd;fill:url(#SVGID_1_);}</style><g>	<g>		<g>			<polygon class="st0" points="247.02,186.36 342.52,186.36 342.52,281.22 247.65,281.22 247.65,221.06 310.24,221.06 310.24,242 				264.4,242 264.4,260.8 324.44,260.8 324.44,206.61 247.01,206.61 			"/>			<polygon class="st0" points="581.93,281.22 486.53,281.22 486.53,186.41 581.4,186.41 581.4,247.84 518.82,247.84 518.82,226.91 				564.65,226.91 564.65,208.11 504.62,208.11 504.62,262.29 582.05,262.29 			"/>			<polygon class="st0" points="445.27,186.36 445.27,281.22 425.93,281.22 425.93,206.28 374.31,206.28 374.31,280.64 				354.49,280.64 354.49,186.41 			"/>			<polygon class="st0" points="664.1,186.84 663.79,207.7 612.17,207.7 612.17,280.64 592.36,280.64 592.36,186.41 			"/>			<polygon class="st0" points="475.63,186.36 475.38,280.64 455.56,280.64 455.56,186.48 			"/>			<polygon class="st1" points="716.72,205.27 693.76,205.27 693.76,281.53 673.94,281.53 673.94,186.36 778.87,186.8 				778.87,281.22 759.53,281.22 759.53,205.27 736.53,205.27 736.53,281.53 716.72,281.53 			"/>		</g>		<g>			<path d="M247.03,311.1l-2.01,6.09h-2.58l6.58-19.35h3.02l6.6,19.35h-2.67l-2.07-6.09H247.03z M253.38,309.15l-1.9-5.57				c-0.43-1.26-0.72-2.41-1.01-3.53h-0.06c-0.29,1.15-0.6,2.33-0.98,3.5l-1.9,5.6H253.38z"/>			<path d="M261.12,314.14c1.12,0.69,2.76,1.26,4.48,1.26c2.56,0,4.05-1.35,4.05-3.3c0-1.81-1.03-2.84-3.65-3.85				c-3.16-1.12-5.11-2.76-5.11-5.48c0-3.02,2.5-5.26,6.26-5.26c1.98,0,3.42,0.46,4.28,0.95l-0.69,2.04				c-0.63-0.34-1.92-0.92-3.68-0.92c-2.64,0-3.65,1.58-3.65,2.9c0,1.81,1.18,2.7,3.85,3.73c3.27,1.26,4.94,2.84,4.94,5.69				c0,2.99-2.21,5.57-6.78,5.57c-1.87,0-3.91-0.55-4.94-1.24L261.12,314.14z"/>			<path d="M292.16,307.31c0,6.66-4.05,10.19-8.99,10.19c-5.11,0-8.7-3.96-8.7-9.82c0-6.15,3.82-10.17,8.99-10.17				C288.74,297.52,292.16,301.57,292.16,307.31z M277.14,307.63c0,4.14,2.24,7.84,6.17,7.84c3.96,0,6.2-3.65,6.2-8.04				c0-3.85-2.01-7.87-6.17-7.87C279.21,299.56,277.14,303.38,277.14,307.63z"/>			<path d="M308.92,316.56c-0.92,0.46-2.76,0.92-5.11,0.92c-5.46,0-9.56-3.45-9.56-9.79c0-6.06,4.11-10.17,10.11-10.17				c2.41,0,3.93,0.52,4.59,0.86l-0.6,2.04c-0.95-0.46-2.3-0.81-3.91-0.81c-4.54,0-7.55,2.9-7.55,7.98c0,4.74,2.73,7.78,7.44,7.78				c1.52,0,3.07-0.32,4.08-0.81L308.92,316.56z"/>			<path d="M314.53,297.84v19.35h-2.5v-19.35H314.53z"/>			<path d="M322.03,311.1l-2.01,6.09h-2.58l6.58-19.35h3.02l6.6,19.35h-2.67l-2.07-6.09H322.03z M328.37,309.15l-1.9-5.57				c-0.43-1.26-0.72-2.41-1.01-3.53h-0.06c-0.29,1.15-0.6,2.33-0.98,3.5l-1.9,5.6H328.37z"/>			<path d="M349.55,316.56c-0.92,0.46-2.76,0.92-5.11,0.92c-5.46,0-9.56-3.45-9.56-9.79c0-6.06,4.11-10.17,10.11-10.17				c2.41,0,3.93,0.52,4.59,0.86l-0.6,2.04c-0.95-0.46-2.3-0.81-3.91-0.81c-4.54,0-7.55,2.9-7.55,7.98c0,4.74,2.73,7.78,7.44,7.78				c1.52,0,3.07-0.32,4.08-0.81L349.55,316.56z"/>			<path d="M355.17,297.84v19.35h-2.5v-19.35H355.17z"/>			<path d="M376.07,307.31c0,6.66-4.05,10.19-8.99,10.19c-5.11,0-8.7-3.96-8.7-9.82c0-6.15,3.82-10.17,8.99-10.17				C372.66,297.52,376.07,301.57,376.07,307.31z M361.06,307.63c0,4.14,2.24,7.84,6.17,7.84c3.96,0,6.2-3.65,6.2-8.04				c0-3.85-2.01-7.87-6.17-7.87C363.12,299.56,361.06,303.38,361.06,307.63z M371.42,293.38l-3.65,3.33h-2.07l2.67-3.33H371.42z"/>			<path d="M379.31,317.19v-19.35h2.73l6.2,9.79c1.44,2.27,2.56,4.31,3.47,6.29l0.06-0.03c-0.23-2.59-0.29-4.94-0.29-7.95v-8.1h2.35				v19.35h-2.53l-6.14-9.82c-1.35-2.16-2.64-4.37-3.62-6.46l-0.09,0.03c0.14,2.44,0.2,4.76,0.2,7.98v8.27H379.31z"/>			<path d="M404.28,317.19v-19.35H407l6.2,9.79c1.44,2.27,2.55,4.31,3.47,6.29l0.06-0.03c-0.23-2.59-0.29-4.94-0.29-7.95v-8.1h2.35				v19.35h-2.53l-6.14-9.82c-1.35-2.16-2.64-4.37-3.62-6.46l-0.09,0.03c0.14,2.44,0.2,4.76,0.2,7.98v8.27H404.28z"/>			<path d="M426.29,311.1l-2.01,6.09h-2.58l6.58-19.35h3.02l6.6,19.35h-2.67l-2.07-6.09H426.29z M432.63,309.15l-1.89-5.57				c-0.43-1.26-0.72-2.41-1.01-3.53h-0.06c-0.29,1.15-0.6,2.33-0.98,3.5l-1.9,5.6H432.63z"/>			<path d="M453.82,316.56c-0.92,0.46-2.76,0.92-5.11,0.92c-5.46,0-9.56-3.45-9.56-9.79c0-6.06,4.1-10.17,10.11-10.17				c2.41,0,3.93,0.52,4.59,0.86l-0.6,2.04c-0.95-0.46-2.3-0.81-3.9-0.81c-4.54,0-7.55,2.9-7.55,7.98c0,4.74,2.73,7.78,7.44,7.78				c1.52,0,3.07-0.32,4.08-0.81L453.82,316.56z"/>			<path d="M459.44,297.84v19.35h-2.5v-19.35H459.44z"/>			<path d="M480.34,307.31c0,6.66-4.05,10.19-8.99,10.19c-5.11,0-8.7-3.96-8.7-9.82c0-6.15,3.82-10.17,8.99-10.17				C476.92,297.52,480.34,301.57,480.34,307.31z M465.32,307.63c0,4.14,2.24,7.84,6.17,7.84c3.96,0,6.2-3.65,6.2-8.04				c0-3.85-2.01-7.87-6.18-7.87C467.39,299.56,465.32,303.38,465.32,307.63z"/>			<path d="M483.57,317.19v-19.35h2.73l6.2,9.79c1.44,2.27,2.55,4.31,3.47,6.29l0.06-0.03c-0.23-2.59-0.29-4.94-0.29-7.95v-8.1h2.35				v19.35h-2.53l-6.14-9.82c-1.35-2.16-2.64-4.37-3.62-6.46l-0.09,0.03c0.14,2.44,0.2,4.76,0.2,7.98v8.27H483.57z"/>			<path d="M505.59,311.1l-2.01,6.09h-2.58l6.58-19.35h3.02l6.6,19.35h-2.67l-2.07-6.09H505.59z M511.93,309.15l-1.89-5.57				c-0.43-1.26-0.72-2.41-1.01-3.53h-0.06c-0.29,1.15-0.6,2.33-0.98,3.5l-1.9,5.6H511.93z"/>			<path d="M520.02,297.84h2.5v17.26h8.27v2.1h-10.77V297.84z"/>			<path d="M539.65,298.09c1.52-0.23,3.33-0.4,5.31-0.4c3.59,0,6.15,0.83,7.84,2.41c1.72,1.58,2.73,3.82,2.73,6.95				c0,3.16-0.98,5.74-2.79,7.52c-1.81,1.81-4.79,2.79-8.56,2.79c-1.78,0-3.27-0.09-4.54-0.23V298.09z M542.15,315.21				c0.63,0.11,1.55,0.14,2.53,0.14c5.34,0,8.24-2.99,8.24-8.21c0.03-4.56-2.55-7.46-7.84-7.46c-1.29,0-2.27,0.11-2.93,0.26V315.21z"				/>			<path d="M568.79,308.12h-7.52v6.98h8.39v2.1h-10.88v-19.35h10.45v2.1h-7.95v6.11h7.52V308.12z"/>			<path d="M581.47,297.84v19.35h-2.5v-19.35H581.47z"/>			<path d="M602.14,308.69c-0.15-2.7-0.32-5.94-0.29-8.36h-0.09c-0.66,2.27-1.46,4.68-2.44,7.35l-3.42,9.39h-1.89l-3.13-9.22				c-0.92-2.73-1.69-5.23-2.24-7.52h-0.06c-0.06,2.41-0.2,5.66-0.37,8.56l-0.52,8.3h-2.38l1.35-19.35h3.19l3.3,9.36				c0.81,2.38,1.47,4.51,1.95,6.52h0.09c0.49-1.95,1.18-4.08,2.04-6.52l3.45-9.36h3.19l1.21,19.35h-2.44L602.14,308.69z"/>			<path d="M608.9,298.06c1.2-0.2,2.79-0.37,4.79-0.37c2.47,0,4.28,0.58,5.43,1.61c1.06,0.92,1.69,2.33,1.69,4.05				c0,1.75-0.52,3.13-1.49,4.13c-1.32,1.41-3.47,2.13-5.91,2.13c-0.75,0-1.44-0.03-2.01-0.17v7.75h-2.5V298.06z M611.4,307.4				c0.54,0.14,1.23,0.2,2.07,0.2c3.02,0,4.85-1.47,4.85-4.14c0-2.55-1.81-3.79-4.56-3.79c-1.09,0-1.92,0.09-2.35,0.2V307.4z"/>			<path d="M640.71,307.31c0,6.66-4.05,10.19-8.99,10.19c-5.11,0-8.7-3.96-8.7-9.82c0-6.15,3.82-10.17,8.99-10.17				C637.29,297.52,640.71,301.57,640.71,307.31z M625.69,307.63c0,4.14,2.24,7.84,6.17,7.84c3.96,0,6.2-3.65,6.2-8.04				c0-3.85-2.01-7.87-6.17-7.87C627.76,299.56,625.69,303.38,625.69,307.63z"/>			<path d="M643.94,298.09c1.26-0.26,3.07-0.4,4.79-0.4c2.67,0,4.39,0.49,5.6,1.58c0.98,0.86,1.52,2.18,1.52,3.68				c0,2.55-1.61,4.25-3.65,4.94v0.09c1.49,0.52,2.38,1.9,2.84,3.91c0.63,2.7,1.09,4.56,1.49,5.31h-2.58				c-0.32-0.54-0.75-2.21-1.29-4.62c-0.57-2.67-1.61-3.68-3.88-3.76h-2.35v8.39h-2.5V298.09z M646.44,306.91H649				c2.67,0,4.37-1.46,4.37-3.68c0-2.5-1.81-3.59-4.45-3.62c-1.2,0-2.07,0.12-2.47,0.23V306.91z"/>			<path d="M663.32,299.96h-5.89v-2.12h14.33v2.12h-5.91v17.23h-2.53V299.96z"/>			<path d="M674.88,311.1l-2.01,6.09h-2.58l6.58-19.35h3.02l6.6,19.35h-2.67l-2.07-6.09H674.88z M681.23,309.15l-1.89-5.57				c-0.43-1.26-0.72-2.41-1.01-3.53h-0.06c-0.29,1.15-0.6,2.33-0.98,3.5l-1.9,5.6H681.23z"/>			<path d="M689.32,298.09c1.52-0.23,3.33-0.4,5.31-0.4c3.59,0,6.15,0.83,7.84,2.41c1.72,1.58,2.73,3.82,2.73,6.95				c0,3.16-0.98,5.74-2.79,7.52c-1.81,1.81-4.79,2.79-8.56,2.79c-1.78,0-3.27-0.09-4.54-0.23V298.09z M691.81,315.21				c0.63,0.11,1.55,0.14,2.53,0.14c5.34,0,8.24-2.99,8.24-8.21c0.03-4.56-2.55-7.46-7.84-7.46c-1.29,0-2.27,0.11-2.93,0.26V315.21z"				/>			<path d="M724.97,307.31c0,6.66-4.05,10.19-8.99,10.19c-5.11,0-8.7-3.96-8.7-9.82c0-6.15,3.82-10.17,8.99-10.17				C721.55,297.52,724.97,301.57,724.97,307.31z M709.95,307.63c0,4.14,2.24,7.84,6.17,7.84c3.96,0,6.2-3.65,6.2-8.04				c0-3.85-2.01-7.87-6.17-7.87C712.02,299.56,709.95,303.38,709.95,307.63z"/>			<path d="M728.2,298.09c1.26-0.26,3.07-0.4,4.79-0.4c2.67,0,4.39,0.49,5.6,1.58c0.98,0.86,1.52,2.18,1.52,3.68				c0,2.55-1.61,4.25-3.65,4.94v0.09c1.49,0.52,2.38,1.9,2.84,3.91c0.63,2.7,1.09,4.56,1.49,5.31h-2.58				c-0.32-0.54-0.75-2.21-1.29-4.62c-0.57-2.67-1.61-3.68-3.88-3.76h-2.35v8.39h-2.5V298.09z M730.7,306.91h2.55				c2.67,0,4.37-1.46,4.37-3.68c0-2.5-1.81-3.59-4.45-3.62c-1.2,0-2.07,0.12-2.47,0.23V306.91z"/>			<path d="M753.67,308.12h-7.52v6.98h8.39v2.1h-10.88v-19.35h10.45v2.1h-7.95v6.11h7.52V308.12z"/>			<path d="M757.42,314.14c1.12,0.69,2.76,1.26,4.48,1.26c2.56,0,4.05-1.35,4.05-3.3c0-1.81-1.03-2.84-3.65-3.85				c-3.16-1.12-5.11-2.76-5.11-5.48c0-3.02,2.5-5.26,6.26-5.26c1.98,0,3.42,0.46,4.28,0.95l-0.69,2.04				c-0.63-0.34-1.92-0.92-3.68-0.92c-2.64,0-3.65,1.58-3.65,2.9c0,1.81,1.18,2.7,3.85,3.73c3.27,1.26,4.94,2.84,4.94,5.69				c0,2.99-2.21,5.57-6.78,5.57c-1.87,0-3.9-0.55-4.94-1.24L757.42,314.14z"/>			<path d="M780.98,317.19v-8.21l-6.11-11.14h2.84l2.73,5.34c0.75,1.46,1.32,2.64,1.92,3.99h0.06c0.55-1.26,1.21-2.53,1.95-3.99				l2.78-5.34H790l-6.49,11.11v8.24H780.98z"/>			<path d="M253.93,342.55h-7.52v6.98h8.38v2.1H243.9v-19.35h10.45v2.1h-7.95v6.11h7.52V342.55z"/>			<path d="M268.62,351.63l-2.47-4.28c-1.01-1.64-1.64-2.7-2.24-3.82h-0.06c-0.55,1.12-1.09,2.15-2.1,3.85l-2.33,4.25h-2.87				l5.91-9.79l-5.69-9.56h2.9l2.56,4.54c0.72,1.26,1.26,2.24,1.78,3.27h0.09c0.55-1.15,1.03-2.04,1.75-3.27l2.64-4.54h2.87				l-5.89,9.42l6.03,9.94H268.62z"/>			<path d="M274.41,332.5c1.21-0.2,2.78-0.37,4.8-0.37c2.47,0,4.28,0.58,5.43,1.61c1.06,0.92,1.69,2.33,1.69,4.05				c0,1.75-0.52,3.13-1.49,4.13c-1.32,1.41-3.47,2.13-5.91,2.13c-0.75,0-1.44-0.03-2.01-0.17v7.75h-2.5V332.5z M276.91,341.84				c0.55,0.14,1.23,0.2,2.07,0.2c3.02,0,4.85-1.47,4.85-4.14c0-2.55-1.81-3.79-4.56-3.79c-1.09,0-1.92,0.09-2.35,0.2V341.84z"/>			<path d="M306.22,341.75c0,6.66-4.05,10.19-8.99,10.19c-5.11,0-8.7-3.96-8.7-9.82c0-6.15,3.82-10.17,8.99-10.17				C302.8,331.96,306.22,336.01,306.22,341.75z M291.2,342.06c0,4.14,2.24,7.84,6.17,7.84c3.96,0,6.2-3.65,6.2-8.04				c0-3.85-2.01-7.87-6.17-7.87C293.27,334,291.2,337.81,291.2,342.06z"/>			<path d="M309.45,332.53c1.26-0.26,3.07-0.4,4.8-0.4c2.67,0,4.39,0.49,5.6,1.58c0.98,0.86,1.52,2.18,1.52,3.68				c0,2.55-1.61,4.25-3.65,4.94v0.09c1.49,0.52,2.38,1.9,2.84,3.91c0.63,2.7,1.09,4.56,1.49,5.31h-2.58				c-0.32-0.54-0.75-2.21-1.29-4.62c-0.57-2.67-1.61-3.68-3.88-3.76h-2.35v8.39h-2.5V332.53z M311.95,341.35h2.56				c2.67,0,4.36-1.46,4.36-3.68c0-2.5-1.81-3.59-4.45-3.62c-1.21,0-2.07,0.12-2.47,0.23V341.35z"/>			<path d="M328.83,334.4h-5.89v-2.12h14.33v2.12h-5.92v17.23h-2.53V334.4z"/>			<path d="M340.39,345.54l-2.01,6.09h-2.58l6.58-19.35h3.02l6.6,19.35h-2.67l-2.07-6.09H340.39z M346.74,343.59l-1.9-5.57				c-0.43-1.26-0.72-2.41-1.01-3.53h-0.06c-0.29,1.15-0.6,2.33-0.98,3.5l-1.9,5.6H346.74z"/>			<path d="M354.83,332.53c1.52-0.23,3.33-0.4,5.31-0.4c3.59,0,6.14,0.83,7.84,2.41c1.72,1.58,2.73,3.82,2.73,6.95				c0,3.16-0.98,5.74-2.79,7.52c-1.81,1.81-4.8,2.79-8.56,2.79c-1.78,0-3.27-0.09-4.54-0.23V332.53z M357.33,349.65				c0.63,0.11,1.55,0.14,2.53,0.14c5.34,0,8.24-2.99,8.24-8.21c0.03-4.56-2.56-7.46-7.84-7.46c-1.29,0-2.27,0.11-2.93,0.26V349.65z"				/>			<path d="M390.48,341.75c0,6.66-4.05,10.19-8.99,10.19c-5.11,0-8.7-3.96-8.7-9.82c0-6.15,3.82-10.17,8.99-10.17				C387.06,331.96,390.48,336.01,390.48,341.75z M375.46,342.06c0,4.14,2.24,7.84,6.17,7.84c3.96,0,6.2-3.65,6.2-8.04				c0-3.85-2.01-7.87-6.17-7.87C377.53,334,375.46,337.81,375.46,342.06z"/>			<path d="M393.71,332.53c1.26-0.26,3.07-0.4,4.8-0.4c2.67,0,4.39,0.49,5.6,1.58c0.98,0.86,1.52,2.18,1.52,3.68				c0,2.55-1.61,4.25-3.65,4.94v0.09c1.49,0.52,2.38,1.9,2.84,3.91c0.63,2.7,1.09,4.56,1.49,5.31h-2.58				c-0.32-0.54-0.75-2.21-1.29-4.62c-0.58-2.67-1.61-3.68-3.88-3.76h-2.35v8.39h-2.5V332.53z M396.21,341.35h2.56				c2.67,0,4.36-1.46,4.36-3.68c0-2.5-1.81-3.59-4.45-3.62c-1.21,0-2.07,0.12-2.47,0.23V341.35z"/>			<path d="M419.18,342.55h-7.52v6.98h8.39v2.1h-10.88v-19.35h10.45v2.1h-7.95v6.11h7.52V342.55z"/>			<path d="M422.93,348.58c1.12,0.69,2.76,1.26,4.48,1.26c2.56,0,4.05-1.35,4.05-3.3c0-1.81-1.03-2.84-3.65-3.85				c-3.16-1.12-5.11-2.76-5.11-5.48c0-3.02,2.5-5.26,6.26-5.26c1.98,0,3.42,0.46,4.28,0.95l-0.69,2.04				c-0.63-0.34-1.92-0.92-3.68-0.92c-2.64,0-3.65,1.58-3.65,2.9c0,1.81,1.18,2.7,3.85,3.73c3.27,1.26,4.94,2.84,4.94,5.69				c0,2.99-2.21,5.57-6.78,5.57c-1.87,0-3.9-0.55-4.94-1.24L422.93,348.58z"/>			<path d="M443.51,332.53c1.52-0.23,3.33-0.4,5.31-0.4c3.59,0,6.15,0.83,7.84,2.41c1.72,1.58,2.73,3.82,2.73,6.95				c0,3.16-0.98,5.74-2.79,7.52c-1.81,1.81-4.79,2.79-8.56,2.79c-1.78,0-3.27-0.09-4.54-0.23V332.53z M446.01,349.65				c0.63,0.11,1.55,0.14,2.53,0.14c5.34,0,8.24-2.99,8.24-8.21c0.03-4.56-2.55-7.46-7.84-7.46c-1.29,0-2.27,0.11-2.93,0.26V349.65z"				/>			<path d="M472.64,342.55h-7.52v6.98h8.39v2.1h-10.88v-19.35h10.45v2.1h-7.95v6.11h7.52V342.55z"/>			<path d="M482.83,332.27h2.5v17.26h8.27v2.1h-10.77V332.27z"/>			<path d="M499.5,345.54l-2.01,6.09h-2.58l6.58-19.35h3.02l6.6,19.35h-2.67l-2.07-6.09H499.5z M505.85,343.59l-1.89-5.57				c-0.43-1.26-0.72-2.41-1.01-3.53h-0.06c-0.29,1.15-0.6,2.33-0.98,3.5l-1.9,5.6H505.85z"/>			<path d="M520.02,332.53c1.26-0.26,3.07-0.4,4.79-0.4c2.67,0,4.39,0.49,5.6,1.58c0.98,0.86,1.52,2.18,1.52,3.68				c0,2.55-1.61,4.25-3.65,4.94v0.09c1.49,0.52,2.38,1.9,2.84,3.91c0.63,2.7,1.09,4.56,1.49,5.31h-2.58				c-0.32-0.54-0.75-2.21-1.29-4.62c-0.57-2.67-1.61-3.68-3.88-3.76h-2.35v8.39h-2.5V332.53z M522.52,341.35h2.55				c2.67,0,4.37-1.46,4.37-3.68c0-2.5-1.81-3.59-4.45-3.62c-1.2,0-2.07,0.12-2.47,0.23V341.35z"/>			<path d="M545.48,342.55h-7.52v6.98h8.39v2.1h-10.88v-19.35h10.45v2.1h-7.95v6.11h7.52V342.55z"/>			<path d="M549.58,332.5c1.2-0.2,2.79-0.37,4.79-0.37c2.47,0,4.28,0.58,5.43,1.61c1.06,0.92,1.69,2.33,1.69,4.05				c0,1.75-0.52,3.13-1.49,4.13c-1.32,1.41-3.47,2.13-5.91,2.13c-0.75,0-1.44-0.03-2.01-0.17v7.75h-2.5V332.5z M552.08,341.84				c0.54,0.14,1.23,0.2,2.07,0.2c3.02,0,4.85-1.47,4.85-4.14c0-2.55-1.81-3.79-4.56-3.79c-1.09,0-1.92,0.09-2.35,0.2V341.84z"/>			<path d="M567.34,332.27v11.46c0,4.34,1.92,6.17,4.51,6.17c2.87,0,4.71-1.9,4.71-6.17v-11.46h2.53v11.29				c0,5.94-3.13,8.38-7.32,8.38c-3.96,0-6.95-2.27-6.95-8.27v-11.4H567.34z M576.25,327.88l-3.68,3.36h-2.04l2.64-3.36H576.25z"/>			<path d="M583.41,332.53c1.09-0.23,2.81-0.4,4.56-0.4c2.5,0,4.11,0.43,5.31,1.41c1.01,0.75,1.61,1.89,1.61,3.42				c0,1.87-1.23,3.5-3.27,4.25v0.06c1.84,0.46,3.99,1.98,3.99,4.85c0,1.67-0.66,2.93-1.64,3.88c-1.35,1.23-3.53,1.81-6.69,1.81				c-1.72,0-3.04-0.12-3.88-0.23V332.53z M585.91,340.46h2.27c2.64,0,4.19-1.38,4.19-3.24c0-2.27-1.72-3.16-4.25-3.16				c-1.15,0-1.81,0.09-2.21,0.17V340.46z M585.91,349.73c0.49,0.09,1.21,0.11,2.1,0.11c2.58,0,4.97-0.95,4.97-3.76				c0-2.64-2.27-3.73-5-3.73h-2.07V349.73z"/>			<path d="M598.97,332.27h2.5v17.26h8.27v2.1h-10.77V332.27z"/>			<path d="M615.01,332.27v19.35h-2.5v-19.35H615.01z"/>			<path d="M632.9,351c-0.92,0.46-2.76,0.92-5.11,0.92c-5.46,0-9.56-3.45-9.56-9.79c0-6.06,4.1-10.17,10.11-10.17				c2.41,0,3.93,0.52,4.59,0.86l-0.6,2.04c-0.95-0.46-2.3-0.81-3.9-0.81c-4.54,0-7.55,2.9-7.55,7.98c0,4.74,2.73,7.78,7.44,7.78				c1.52,0,3.07-0.32,4.08-0.81L632.9,351z"/>			<path d="M639.26,345.54l-2.01,6.09h-2.58l6.58-19.35h3.02l6.6,19.35h-2.67l-2.07-6.09H639.26z M645.61,343.59l-1.89-5.57				c-0.43-1.26-0.72-2.41-1.01-3.53h-0.06c-0.29,1.15-0.6,2.33-0.98,3.5l-1.9,5.6H645.61z"/>			<path d="M676.09,343.13c-0.15-2.7-0.32-5.94-0.29-8.36h-0.09c-0.66,2.27-1.46,4.68-2.44,7.35l-3.42,9.39h-1.89l-3.13-9.22				c-0.92-2.73-1.69-5.23-2.24-7.52h-0.06c-0.06,2.41-0.2,5.66-0.37,8.56l-0.52,8.3h-2.38l1.35-19.35h3.19l3.3,9.36				c0.81,2.38,1.47,4.51,1.95,6.52h0.09c0.49-1.95,1.18-4.08,2.04-6.52l3.45-9.36h3.19l1.21,19.35h-2.44L676.09,343.13z"/>			<path d="M692.88,342.55h-7.52v6.98h8.39v2.1h-10.88v-19.35h10.45v2.1h-7.95v6.11h7.52V342.55z"/>			<path d="M707.57,351.63l-2.47-4.28c-1.01-1.64-1.64-2.7-2.24-3.82h-0.06c-0.54,1.12-1.09,2.15-2.1,3.85l-2.33,4.25h-2.87				l5.92-9.79l-5.69-9.56h2.9l2.55,4.54c0.72,1.26,1.26,2.24,1.78,3.27h0.09c0.54-1.15,1.03-2.04,1.75-3.27l2.64-4.54h2.87				l-5.89,9.42l6.03,9.94H707.57z"/>			<path d="M715.86,332.27v19.35h-2.5v-19.35H715.86z"/>			<path d="M733.75,351c-0.92,0.46-2.76,0.92-5.11,0.92c-5.46,0-9.56-3.45-9.56-9.79c0-6.06,4.1-10.17,10.11-10.17				c2.41,0,3.93,0.52,4.59,0.86l-0.6,2.04c-0.95-0.46-2.3-0.81-3.9-0.81c-4.54,0-7.55,2.9-7.55,7.98c0,4.74,2.73,7.78,7.44,7.78				c1.52,0,3.07-0.32,4.08-0.81L733.75,351z"/>			<path d="M740.11,345.54l-2.01,6.09h-2.58l6.58-19.35h3.02l6.6,19.35h-2.67l-2.07-6.09H740.11z M746.45,343.59l-1.89-5.57				c-0.43-1.26-0.72-2.41-1.01-3.53h-0.06c-0.29,1.15-0.6,2.33-0.98,3.5l-1.9,5.6H746.45z"/>			<path d="M754.54,351.63v-19.35h2.73l6.2,9.79c1.44,2.27,2.55,4.31,3.47,6.29l0.06-0.03c-0.23-2.59-0.29-4.94-0.29-7.95v-8.1h2.35				v19.35h-2.53l-6.14-9.82c-1.35-2.16-2.64-4.37-3.62-6.46l-0.09,0.03c0.14,2.44,0.2,4.76,0.2,7.98v8.27H754.54z"/>			<path d="M776.56,345.54l-2.01,6.09h-2.58l6.58-19.35h3.02l6.6,19.35h-2.67l-2.07-6.09H776.56z M782.9,343.59l-1.89-5.57				c-0.43-1.26-0.72-2.41-1.01-3.53h-0.06c-0.29,1.15-0.6,2.33-0.98,3.5l-1.9,5.6H782.9z"/>		</g>	</g>	<radialGradient id="SVGID_1_" cx="115.868" cy="250" r="108.3331" gradientUnits="userSpaceOnUse">		<stop  offset="0" style="stop-color:#13A538"/>		<stop  offset="1" style="stop-color:#006835"/>	</radialGradient>	<path class="st2" d="M149.42,292.4v-8.52l-53.46,30.87l-66.04-38.13v-61.73l-7.33,4.23v61.76l73.39,42.37L149.42,292.4		L149.42,292.4z M103.32,296l-7.36,4.25L42.5,269.38v-84.76l53.46-30.86l7.37,4.26l-53.5,30.89v76.21L103.32,296L103.32,296z		 M29.92,200.39v-23l66.05-38.13l19.93,11.51l19.91-11.49l66.04,38.13v22.98l19.89,11.49l0,76.24l-19.89,11.49v23.01l-66.04,38.13		l-19.92-11.5l-19.92,11.5l-66.04-38.13v-23L10,288.11v-76.23L29.92,200.39L29.92,200.39z M62.42,196.1l73.38-42.36l53.46,30.86		v8.52l-53.45-30.86L69.75,200.4v61.72l-7.33-4.23V196.1L62.42,196.1z M82.34,269.38v-38.76l33.55-19.37l33.53,19.36v38.78		l-33.54,19.37L82.34,269.38L82.34,269.38z M82.34,207.6l53.45-30.86l73.41,42.39l0,61.75l-7.36,4.25v-61.74l-66.04-38.13		l-53.46,30.87V207.6L82.34,207.6z M135.8,199.75l53.46,30.86v84.76l-53.46,30.86l-7.36-4.25l53.49-30.88v-76.23		c-17.85-10.31-35.66-20.57-53.5-30.87L135.8,199.75L135.8,199.75z M169.34,242.12v61.76l-73.38,42.36L42.5,315.38v-8.5l53.45,30.86		l66.06-38.14v-61.72L169.34,242.12z"/></g></svg>